<svg xmlns="http://www.w3.org/2000/svg" viewBox="0 0 800 300" width="800" height="300" role="img" aria-hidden="true"><defs><radialGradient id="bt" cx="42%" cy="22%" r="78%">
      <stop offset="0%" stop-color="#f6c977"/><stop offset="42%" stop-color="#e0a352"/>
      <stop offset="78%" stop-color="#bd7a33"/><stop offset="100%" stop-color="#8d551f"/></radialGradient><filter id="btS" x="-25%" y="-25%" width="150%" height="160%">
     <feDropShadow dx="0" dy="18" stdDeviation="14" flood-color="#000" flood-opacity="0.5"/></filter></defs><g filter="url(#btS)">
       <path d="M40 236 C40 88 200 34 400 34 C600 34 760 88 760 236 Z" fill="url(#bt)"/>
       <ellipse cx="400" cy="236" rx="360" ry="34" fill="#a86a28"/>
       <path d="M120 150 C180 92 300 66 400 66 C470 66 540 78 596 104"
             fill="none" stroke="#ffe6ac" stroke-opacity="0.32" stroke-width="16" stroke-linecap="round"/>
       <ellipse cx="515.5" cy="150.0" rx="9" ry="5.5" fill="#fdf0d0" opacity="0.9" transform="rotate(0.0 515.5 150.0)"/><ellipse cx="300.9" cy="110.6" rx="9" ry="5.5" fill="#fdf0d0" opacity="0.9" transform="rotate(34.4 300.9 110.6)"/><ellipse cx="413.4" cy="85.6" rx="9" ry="5.5" fill="#fdf0d0" opacity="0.9" transform="rotate(68.8 413.4 85.6)"/><ellipse cx="504.8" cy="81.8" rx="9" ry="5.5" fill="#fdf0d0" opacity="0.9" transform="rotate(13.1 504.8 81.8)"/><ellipse cx="211.8" cy="142.9" rx="9" ry="5.5" fill="#fdf0d0" opacity="0.9" transform="rotate(47.5 211.8 142.9)"/><ellipse cx="497.5" cy="116.2" rx="9" ry="5.5" fill="#fdf0d0" opacity="0.9" transform="rotate(81.9 497.5 116.2)"/><ellipse cx="365.1" cy="86.8" rx="9" ry="5.5" fill="#fdf0d0" opacity="0.9" transform="rotate(26.3 365.1 86.8)"/><ellipse cx="329.3" cy="78.0" rx="9" ry="5.5" fill="#fdf0d0" opacity="0.9" transform="rotate(60.6 329.3 78.0)"/><ellipse cx="561.7" cy="136.1" rx="9" ry="5.5" fill="#fdf0d0" opacity="0.9" transform="rotate(5.0 561.7 136.1)"/><ellipse cx="223.4" cy="122.5" rx="9" ry="5.5" fill="#fdf0d0" opacity="0.9" transform="rotate(39.4 223.4 122.5)"/><ellipse cx="449.0" cy="89.2" rx="9" ry="5.5" fill="#fdf0d0" opacity="0.9" transform="rotate(73.8 449.0 89.2)"/><ellipse cx="440.2" cy="75.3" rx="9" ry="5.5" fill="#fdf0d0" opacity="0.9" transform="rotate(18.1 440.2 75.3)"/><ellipse cx="267.4" cy="129.6" rx="9" ry="5.5" fill="#fdf0d0" opacity="0.9" transform="rotate(52.5 267.4 129.6)"/><ellipse cx="568.2" cy="129.3" rx="9" ry="5.5" fill="#fdf0d0" opacity="0.9" transform="rotate(86.9 568.2 129.3)"/><ellipse cx="290.1" cy="92.8" rx="9" ry="5.5" fill="#fdf0d0" opacity="0.9" transform="rotate(31.3 290.1 92.8)"/><ellipse cx="385.2" cy="73.7" rx="9" ry="5.5" fill="#fdf0d0" opacity="0.9" transform="rotate(65.7 385.2 73.7)"/><ellipse cx="502.8" cy="123.8" rx="9" ry="5.5" fill="#fdf0d0" opacity="0.9" transform="rotate(10.0 502.8 123.8)"/><ellipse cx="246.8" cy="136.3" rx="9" ry="5.5" fill="#fdf0d0" opacity="0.9" transform="rotate(44.4 246.8 136.3)"/><ellipse cx="522.1" cy="97.4" rx="9" ry="5.5" fill="#fdf0d0" opacity="0.9" transform="rotate(78.8 522.1 97.4)"/><ellipse cx="391.2" cy="73.4" rx="9" ry="5.5" fill="#fdf0d0" opacity="0.9" transform="rotate(23.2 391.2 73.4)"/><ellipse cx="326.0" cy="118.8" rx="9" ry="5.5" fill="#fdf0d0" opacity="0.9" transform="rotate(57.5 326.0 118.8)"/><ellipse cx="533.2" cy="132.6" rx="9" ry="5.5" fill="#fdf0d0" opacity="0.9" transform="rotate(1.9 533.2 132.6)"/><ellipse cx="274.2" cy="102.8" rx="9" ry="5.5" fill="#fdf0d0" opacity="0.9" transform="rotate(36.3 274.2 102.8)"/><ellipse cx="437.8" cy="74.4" rx="9" ry="5.5" fill="#fdf0d0" opacity="0.9" transform="rotate(70.7 437.8 74.4)"/><ellipse cx="495.0" cy="114.8" rx="9" ry="5.5" fill="#fdf0d0" opacity="0.9" transform="rotate(15.0 495.0 114.8)"/><ellipse cx="290.0" cy="125.7" rx="9" ry="5.5" fill="#fdf0d0" opacity="0.9" transform="rotate(49.4 290.0 125.7)"/>
     </g></svg>
