<svg xmlns="http://www.w3.org/2000/svg" viewBox="0 0 800 960" width="800" height="960" role="img" aria-label="Hambúrguer artesanal Paulo's Burguers"><defs><radialGradient id="bt" cx="42%" cy="22%" r="78%">
      <stop offset="0%" stop-color="#f6c977"/><stop offset="42%" stop-color="#e0a352"/>
      <stop offset="78%" stop-color="#bd7a33"/><stop offset="100%" stop-color="#8d551f"/></radialGradient><filter id="btS" x="-25%" y="-25%" width="150%" height="160%">
     <feDropShadow dx="0" dy="18" stdDeviation="14" flood-color="#000" flood-opacity="0.5"/></filter><linearGradient id="on" x1="0" y1="0" x2="0.4" y2="1">
      <stop offset="0%" stop-color="#d7a8e6"/><stop offset="50%" stop-color="#9b52bf"/>
      <stop offset="100%" stop-color="#5c2374"/></linearGradient><filter id="onS" x="-25%" y="-25%" width="150%" height="160%">
     <feDropShadow dx="0" dy="10" stdDeviation="9" flood-color="#000" flood-opacity="0.45"/></filter><linearGradient id="lt" x1="0" y1="0" x2="0.3" y2="1">
      <stop offset="0%" stop-color="#a6d95e"/><stop offset="55%" stop-color="#63a92f"/>
      <stop offset="100%" stop-color="#2f6b16"/></linearGradient><filter id="ltS" x="-25%" y="-25%" width="150%" height="160%">
     <feDropShadow dx="0" dy="10" stdDeviation="10" flood-color="#000" flood-opacity="0.45"/></filter><radialGradient id="tm" cx="50%" cy="45%" r="60%">
      <stop offset="0%" stop-color="#ff6a5a"/><stop offset="55%" stop-color="#e02f24"/>
      <stop offset="100%" stop-color="#9e1710"/></radialGradient><filter id="tmS" x="-25%" y="-25%" width="150%" height="160%">
     <feDropShadow dx="0" dy="9" stdDeviation="8" flood-color="#000" flood-opacity="0.45"/></filter><linearGradient id="ch" x1="0" y1="0" x2="0.2" y2="1">
      <stop offset="0%" stop-color="#ffdf7e"/><stop offset="50%" stop-color="#f8b73c"/>
      <stop offset="100%" stop-color="#e08a17"/></linearGradient><filter id="chS" x="-25%" y="-25%" width="150%" height="160%">
     <feDropShadow dx="0" dy="10" stdDeviation="9" flood-color="#000" flood-opacity="0.5"/></filter><linearGradient id="mt" x1="0" y1="0" x2="0" y2="1">
      <stop offset="0%" stop-color="#6b3b1d"/><stop offset="45%" stop-color="#4a260f"/>
      <stop offset="100%" stop-color="#2c1508"/></linearGradient><filter id="mtS" x="-25%" y="-25%" width="150%" height="160%">
     <feDropShadow dx="0" dy="14" stdDeviation="12" flood-color="#000" flood-opacity="0.55"/></filter><linearGradient id="bb" x1="0" y1="0" x2="0" y2="1">
      <stop offset="0%" stop-color="#dfa254"/><stop offset="60%" stop-color="#bb7a34"/>
      <stop offset="100%" stop-color="#82501e"/></linearGradient><filter id="bbS" x="-25%" y="-25%" width="150%" height="160%">
     <feDropShadow dx="0" dy="20" stdDeviation="16" flood-color="#000" flood-opacity="0.6"/></filter></defs><g transform="translate(0 0)"><g filter="url(#btS)">
       <path d="M40 236 C40 88 200 34 400 34 C600 34 760 88 760 236 Z" fill="url(#bt)"/>
       <ellipse cx="400" cy="236" rx="360" ry="34" fill="#a86a28"/>
       <path d="M120 150 C180 92 300 66 400 66 C470 66 540 78 596 104"
             fill="none" stroke="#ffe6ac" stroke-opacity="0.32" stroke-width="16" stroke-linecap="round"/>
       <ellipse cx="515.5" cy="150.0" rx="9" ry="5.5" fill="#fdf0d0" opacity="0.9" transform="rotate(0.0 515.5 150.0)"/><ellipse cx="300.9" cy="110.6" rx="9" ry="5.5" fill="#fdf0d0" opacity="0.9" transform="rotate(34.4 300.9 110.6)"/><ellipse cx="413.4" cy="85.6" rx="9" ry="5.5" fill="#fdf0d0" opacity="0.9" transform="rotate(68.8 413.4 85.6)"/><ellipse cx="504.8" cy="81.8" rx="9" ry="5.5" fill="#fdf0d0" opacity="0.9" transform="rotate(13.1 504.8 81.8)"/><ellipse cx="211.8" cy="142.9" rx="9" ry="5.5" fill="#fdf0d0" opacity="0.9" transform="rotate(47.5 211.8 142.9)"/><ellipse cx="497.5" cy="116.2" rx="9" ry="5.5" fill="#fdf0d0" opacity="0.9" transform="rotate(81.9 497.5 116.2)"/><ellipse cx="365.1" cy="86.8" rx="9" ry="5.5" fill="#fdf0d0" opacity="0.9" transform="rotate(26.3 365.1 86.8)"/><ellipse cx="329.3" cy="78.0" rx="9" ry="5.5" fill="#fdf0d0" opacity="0.9" transform="rotate(60.6 329.3 78.0)"/><ellipse cx="561.7" cy="136.1" rx="9" ry="5.5" fill="#fdf0d0" opacity="0.9" transform="rotate(5.0 561.7 136.1)"/><ellipse cx="223.4" cy="122.5" rx="9" ry="5.5" fill="#fdf0d0" opacity="0.9" transform="rotate(39.4 223.4 122.5)"/><ellipse cx="449.0" cy="89.2" rx="9" ry="5.5" fill="#fdf0d0" opacity="0.9" transform="rotate(73.8 449.0 89.2)"/><ellipse cx="440.2" cy="75.3" rx="9" ry="5.5" fill="#fdf0d0" opacity="0.9" transform="rotate(18.1 440.2 75.3)"/><ellipse cx="267.4" cy="129.6" rx="9" ry="5.5" fill="#fdf0d0" opacity="0.9" transform="rotate(52.5 267.4 129.6)"/><ellipse cx="568.2" cy="129.3" rx="9" ry="5.5" fill="#fdf0d0" opacity="0.9" transform="rotate(86.9 568.2 129.3)"/><ellipse cx="290.1" cy="92.8" rx="9" ry="5.5" fill="#fdf0d0" opacity="0.9" transform="rotate(31.3 290.1 92.8)"/><ellipse cx="385.2" cy="73.7" rx="9" ry="5.5" fill="#fdf0d0" opacity="0.9" transform="rotate(65.7 385.2 73.7)"/><ellipse cx="502.8" cy="123.8" rx="9" ry="5.5" fill="#fdf0d0" opacity="0.9" transform="rotate(10.0 502.8 123.8)"/><ellipse cx="246.8" cy="136.3" rx="9" ry="5.5" fill="#fdf0d0" opacity="0.9" transform="rotate(44.4 246.8 136.3)"/><ellipse cx="522.1" cy="97.4" rx="9" ry="5.5" fill="#fdf0d0" opacity="0.9" transform="rotate(78.8 522.1 97.4)"/><ellipse cx="391.2" cy="73.4" rx="9" ry="5.5" fill="#fdf0d0" opacity="0.9" transform="rotate(23.2 391.2 73.4)"/><ellipse cx="326.0" cy="118.8" rx="9" ry="5.5" fill="#fdf0d0" opacity="0.9" transform="rotate(57.5 326.0 118.8)"/><ellipse cx="533.2" cy="132.6" rx="9" ry="5.5" fill="#fdf0d0" opacity="0.9" transform="rotate(1.9 533.2 132.6)"/><ellipse cx="274.2" cy="102.8" rx="9" ry="5.5" fill="#fdf0d0" opacity="0.9" transform="rotate(36.3 274.2 102.8)"/><ellipse cx="437.8" cy="74.4" rx="9" ry="5.5" fill="#fdf0d0" opacity="0.9" transform="rotate(70.7 437.8 74.4)"/><ellipse cx="495.0" cy="114.8" rx="9" ry="5.5" fill="#fdf0d0" opacity="0.9" transform="rotate(15.0 495.0 114.8)"/><ellipse cx="290.0" cy="125.7" rx="9" ry="5.5" fill="#fdf0d0" opacity="0.9" transform="rotate(49.4 290.0 125.7)"/>
     </g></g><g transform="translate(0 205)"><g filter="url(#onS)">
       <g transform="rotate(-8 230 100)">
       <ellipse cx="230" cy="100" rx="120" ry="44" fill="none" stroke="url(#on)" stroke-width="22"/>
       <ellipse cx="230" cy="100" rx="120" ry="44" fill="none" stroke="#f0d3f7" stroke-opacity="0.45" stroke-width="6"/>
     </g><g transform="rotate(5 430 118)">
       <ellipse cx="430" cy="118" rx="138" ry="50" fill="none" stroke="url(#on)" stroke-width="22"/>
       <ellipse cx="430" cy="118" rx="138" ry="50" fill="none" stroke="#f0d3f7" stroke-opacity="0.45" stroke-width="6"/>
     </g><g transform="rotate(-3 620 96)">
       <ellipse cx="620" cy="96" rx="108" ry="40" fill="none" stroke="url(#on)" stroke-width="22"/>
       <ellipse cx="620" cy="96" rx="108" ry="40" fill="none" stroke="#f0d3f7" stroke-opacity="0.45" stroke-width="6"/>
     </g>
     </g></g><g transform="translate(0 292)"><g filter="url(#ltS)">
       <path d="M40 120 C120 60 200 150 280 92 C360 34 440 140 520 88 C600 36 690 140 760 100
                L760 150 C690 190 600 176 520 156 C440 136 360 190 280 166 C200 142 120 186 40 156 Z"
             fill="url(#lt)"/>
       <ellipse cx="40" cy="155.03677052190778" rx="34" ry="26" fill="url(#lt)" opacity="0.95"/><ellipse cx="70" cy="157.92652732402826" rx="34" ry="26" fill="url(#lt)" opacity="0.95"/><ellipse cx="100" cy="153.03016634450864" rx="34" ry="26" fill="url(#lt)" opacity="0.95"/><ellipse cx="130" cy="142.74140735115105" rx="34" ry="26" fill="url(#lt)" opacity="0.95"/><ellipse cx="160" cy="132.09019112887034" rx="34" ry="26" fill="url(#lt)" opacity="0.95"/><ellipse cx="190" cy="126.28365557641446" rx="34" ry="26" fill="url(#lt)" opacity="0.95"/><ellipse cx="220" cy="128.16048415533714" rx="34" ry="26" fill="url(#lt)" opacity="0.95"/><ellipse cx="250" cy="136.80313796502733" rx="34" ry="26" fill="url(#lt)" opacity="0.95"/><ellipse cx="280" cy="147.98641968913952" rx="34" ry="26" fill="url(#lt)" opacity="0.95"/><ellipse cx="310" cy="156.2430766794563" rx="34" ry="26" fill="url(#lt)" opacity="0.95"/><ellipse cx="340" cy="157.53661670504306" rx="34" ry="26" fill="url(#lt)" opacity="0.95"/><ellipse cx="370" cy="151.23465740221346" rx="34" ry="26" fill="url(#lt)" opacity="0.95"/><ellipse cx="400" cy="140.41808366122885" rx="34" ry="26" fill="url(#lt)" opacity="0.95"/><ellipse cx="430" cy="130.374872919207" rx="34" ry="26" fill="url(#lt)" opacity="0.95"/><ellipse cx="460" cy="126.01492299330975" rx="34" ry="26" fill="url(#lt)" opacity="0.95"/><ellipse cx="490" cy="129.46971446021456" rx="34" ry="26" fill="url(#lt)" opacity="0.95"/><ellipse cx="520" cy="139.05027817272116" rx="34" ry="26" fill="url(#lt)" opacity="0.95"/><ellipse cx="550" cy="150.07289394736293" rx="34" ry="26" fill="url(#lt)" opacity="0.95"/><ellipse cx="580" cy="157.14885507256173" rx="34" ry="26" fill="url(#lt)" opacity="0.95"/><ellipse cx="610" cy="156.81888473183392" rx="34" ry="26" fill="url(#lt)" opacity="0.95"/><ellipse cx="640" cy="149.24429793661193" rx="34" ry="26" fill="url(#lt)" opacity="0.95"/><ellipse cx="670" cy="138.12813827794122" rx="34" ry="26" fill="url(#lt)" opacity="0.95"/><ellipse cx="700" cy="128.90484394947288" rx="34" ry="26" fill="url(#lt)" opacity="0.95"/><ellipse cx="730" cy="126.08347424047469" rx="34" ry="26" fill="url(#lt)" opacity="0.95"/><ellipse cx="760" cy="131.04333277520055" rx="34" ry="26" fill="url(#lt)" opacity="0.95"/>
       <path d="M60 140 C180 108 300 168 420 132 C540 96 660 160 748 130"
             fill="none" stroke="#d7f2a0" stroke-opacity="0.35" stroke-width="7" stroke-linecap="round"/>
     </g></g><g transform="translate(0 404)"><g filter="url(#tmS)"><g>
      <ellipse cx="240" cy="96" rx="132" ry="44.88" fill="url(#tm)"/>
      <ellipse cx="240" cy="94" rx="92.39999999999999" ry="29.04" fill="#ff8a72" opacity="0.55"/>
      <ellipse cx="240" cy="94" rx="31.68" ry="10.56" fill="#ffd2c2" opacity="0.7"/>
    </g><g>
      <ellipse cx="430" cy="112" rx="148" ry="50.32" fill="url(#tm)"/>
      <ellipse cx="430" cy="110" rx="103.6" ry="32.56" fill="#ff8a72" opacity="0.55"/>
      <ellipse cx="430" cy="110" rx="35.519999999999996" ry="11.84" fill="#ffd2c2" opacity="0.7"/>
    </g><g>
      <ellipse cx="620" cy="92" rx="126" ry="42.84" fill="url(#tm)"/>
      <ellipse cx="620" cy="90" rx="88.19999999999999" ry="27.72" fill="#ff8a72" opacity="0.55"/>
      <ellipse cx="620" cy="90" rx="30.24" ry="10.08" fill="#ffd2c2" opacity="0.7"/>
    </g></g></g><g transform="translate(0 498)"><g filter="url(#chS)">
     <path d="M60 40 L740 40 L724 108 C724 108 700 176 660 170 C620 164 616 108 588 112
              C560 116 566 190 520 194 C474 198 470 116 440 118 C410 120 414 200 366 202
              C318 204 322 122 292 122 C262 122 268 184 226 182 C184 180 190 116 160 114
              C130 112 128 166 96 158 C74 150 96 96 96 96 Z" fill="url(#ch)"/>
     <path d="M118 62 L684 62" stroke="#fff0b8" stroke-opacity="0.5" stroke-width="10" stroke-linecap="round"/>
   </g></g><g transform="translate(0 616)"><g filter="url(#mtS)">
       <rect x="78" y="60" width="644" height="104" rx="52" fill="url(#mt)"/>
       <ellipse cx="400" cy="64" rx="322" ry="32" fill="#8a5127"/>
       <ellipse cx="400" cy="58" rx="270" ry="20" fill="#a3652f" opacity="0.55"/>
       <ellipse cx="430.0" cy="100.0" rx="5" ry="3" fill="#8a4d24" opacity="0.4"/><ellipse cx="370.6" cy="107.5" rx="7" ry="4" fill="#8a4d24" opacity="0.4"/><ellipse cx="404.4" cy="86.1" rx="9" ry="3" fill="#8a4d24" opacity="0.4"/><ellipse cx="436.3" cy="113.3" rx="5" ry="4" fill="#8a4d24" opacity="0.4"/><ellipse cx="331.5" cy="96.6" rx="7" ry="3" fill="#8a4d24" opacity="0.4"/><ellipse cx="467.1" cy="88.1" rx="9" ry="4" fill="#8a4d24" opacity="0.4"/><ellipse cx="376.8" cy="124.2" rx="5" ry="3" fill="#8a4d24" opacity="0.4"/><ellipse cx="354.2" cy="75.3" rx="7" ry="4" fill="#8a4d24" opacity="0.4"/><ellipse cx="502.6" cy="110.5" rx="9" ry="3" fill="#8a4d24" opacity="0.4"/><ellipse cx="289.9" cy="112.7" rx="5" ry="4" fill="#8a4d24" opacity="0.4"/><ellipse cx="454.7" cy="67.3" rx="7" ry="3" fill="#8a4d24" opacity="0.4"/><ellipse cx="441.6" cy="137.1" rx="9" ry="4" fill="#8a4d24" opacity="0.4"/><ellipse cx="271.3" cy="79.1" rx="5" ry="3" fill="#8a4d24" opacity="0.4"/><ellipse cx="555.0" cy="90.5" rx="7" ry="4" fill="#8a4d24" opacity="0.4"/><ellipse cx="303.0" cy="138.6" rx="9" ry="3" fill="#8a4d24" opacity="0.4"/><ellipse cx="377.1" cy="50.4" rx="5" ry="4" fill="#8a4d24" opacity="0.4"/><ellipse cx="544.1" cy="134.0" rx="7" ry="3" fill="#8a4d24" opacity="0.4"/><ellipse cx="201.9" cy="102.3" rx="9" ry="4" fill="#8a4d24" opacity="0.4"/><ellipse cx="547.6" cy="58.9" rx="5" ry="3" fill="#8a4d24" opacity="0.4"/><ellipse cx="389.9" cy="161.0" rx="7" ry="4" fill="#8a4d24" opacity="0.4"/><ellipse cx="253.9" cy="51.0" rx="9" ry="3" fill="#8a4d24" opacity="0.4"/><ellipse cx="635.8" cy="108.9" rx="5" ry="4" fill="#8a4d24" opacity="0.4"/><ellipse cx="196.6" cy="139.6" rx="7" ry="3" fill="#8a4d24" opacity="0.4"/><ellipse cx="456.6" cy="29.6" rx="9" ry="4" fill="#8a4d24" opacity="0.4"/><ellipse cx="533.0" cy="165.0" rx="5" ry="3" fill="#8a4d24" opacity="0.4"/><ellipse cx="135.6" cy="76.4" rx="7" ry="4" fill="#8a4d24" opacity="0.4"/><ellipse cx="660.9" cy="66.3" rx="9" ry="3" fill="#8a4d24" opacity="0.4"/><ellipse cx="285.2" cy="176.8" rx="5" ry="4" fill="#8a4d24" opacity="0.4"/><ellipse cx="296.1" cy="19.1" rx="7" ry="3" fill="#8a4d24" opacity="0.4"/><ellipse cx="680.7" cy="141.3" rx="9" ry="4" fill="#8a4d24" opacity="0.4"/><ellipse cx="582.2" cy="20.7" rx="7" ry="4" fill="#8a4d24" opacity="0.4"/><ellipse cx="458.7" cy="195.7" rx="9" ry="3" fill="#8a4d24" opacity="0.4"/><ellipse cx="118.0" cy="38.8" rx="5" ry="4" fill="#8a4d24" opacity="0.4"/><ellipse cx="144.3" cy="177.4" rx="9" ry="4" fill="#8a4d24" opacity="0.4"/><ellipse cx="401.9" cy="-8.2" rx="5" ry="3" fill="#8a4d24" opacity="0.4"/><ellipse cx="666.2" cy="182.2" rx="7" ry="4" fill="#8a4d24" opacity="0.4"/><ellipse cx="323.7" cy="217.4" rx="7" ry="3" fill="#8a4d24" opacity="0.4"/><ellipse cx="167.9" cy="-3.3" rx="9" ry="4" fill="#8a4d24" opacity="0.4"/><ellipse cx="561.9" cy="-22.2" rx="9" ry="3" fill="#8a4d24" opacity="0.4"/><ellipse cx="579.2" cy="223.3" rx="5" ry="4" fill="#8a4d24" opacity="0.4"/>
       <path d="M160 150 C280 168 520 168 640 150" fill="none" stroke="#1d0d04" stroke-opacity="0.65" stroke-width="10" stroke-linecap="round"/>
     </g></g><g transform="translate(0 742)"><g filter="url(#bbS)">
     <path d="M56 34 C56 34 160 8 400 8 C640 8 744 34 744 34 L744 88
              C744 132 620 158 400 158 C180 158 56 132 56 88 Z" fill="url(#bb)"/>
     <ellipse cx="400" cy="34" rx="344" ry="24" fill="#efd0a0"/>
     <ellipse cx="400" cy="36" rx="320" ry="18" fill="#fbead0" opacity="0.7"/>
   </g></g></svg>
